<svg width="20" height="20" viewBox="0 0 20 20" fill="none" xmlns="http://www.w3.org/2000/svg">
<path d="M20.0001 3.55455V2.72727C20.0001 2.48617 19.9043 2.25494 19.7338 2.08445C19.5633 1.91396 19.3321 1.81818 19.091 1.81818C18.8499 1.81818 18.6186 1.91396 18.4482 2.08445C18.2777 2.25494 18.1819 2.48617 18.1819 2.72727V3.55455C18.1845 4.18049 17.9772 4.78924 17.5933 5.2836C17.2093 5.77795 16.6708 6.1294 16.0637 6.28182C15.7804 5.30562 15.2587 4.41525 14.5455 3.69091C13.4092 2.58182 13.6364 3.63636 13.6364 0.909091C13.6364 0.667985 13.5407 0.436754 13.3702 0.266267C13.1997 0.0957789 12.9684 0 12.7273 0C12.4862 0 12.255 0.0957789 12.0845 0.266267C11.914 0.436754 11.8183 0.667985 11.8183 0.909091V2.08182C10.6319 1.72813 9.36821 1.72813 8.18189 2.08182V0.909091C8.18189 0.667985 8.08611 0.436754 7.91562 0.266267C7.74513 0.0957789 7.5139 0 7.2728 0C7.03169 0 6.80046 0.0957789 6.62997 0.266267C6.45949 0.436754 6.36371 0.667985 6.36371 0.909091V2.95455C5.21139 3.75926 4.3579 4.92282 3.93643 6.26364C3.33312 6.11055 2.79774 5.76143 2.41435 5.27109C2.03097 4.78075 1.82129 4.17697 1.81825 3.55455V2.72727C1.81825 2.48617 1.72247 2.25494 1.55199 2.08445C1.3815 1.91396 1.15027 1.81818 0.909161 1.81818C0.668055 1.81818 0.436825 1.91396 0.266337 2.08445C0.0958493 2.25494 7.03779e-05 2.48617 7.03779e-05 2.72727V3.55455C-0.00577065 4.614 0.352132 5.64338 1.01398 6.47069C1.67583 7.298 2.60153 7.87313 3.63643 8.1C3.63643 8.1 3.63643 9.51818 3.63643 10H0.909161C0.668055 10 0.436825 10.0958 0.266337 10.2663C0.0958493 10.4368 7.03779e-05 10.668 7.03779e-05 10.9091C7.03779e-05 11.1502 0.0958493 11.3814 0.266337 11.5519C0.436825 11.7224 0.668055 11.8182 0.909161 11.8182H3.63643C3.63643 12.3 3.63643 13.7091 3.63643 13.7455C2.60153 13.9723 1.67583 14.5475 1.01398 15.3748C0.352132 16.2021 -0.00577065 17.2315 7.03779e-05 18.2909V19.0909C7.03779e-05 19.332 0.0958493 19.5632 0.266337 19.7337C0.436825 19.9042 0.668055 20 0.909161 20C1.15027 20 1.3815 19.9042 1.55199 19.7337C1.72247 19.5632 1.81825 19.332 1.81825 19.0909V18.2636C1.81883 17.6385 2.02724 17.0313 2.4107 16.5376C2.79415 16.0438 3.33089 15.6916 3.93643 15.5364C4.34613 16.823 5.15445 17.9459 6.2445 18.7428C7.33454 19.5397 8.64981 19.9692 10.0001 19.9692C11.3503 19.9692 12.6656 19.5397 13.7556 18.7428C14.8457 17.9459 15.654 16.823 16.0637 15.5364C16.67 15.6902 17.2077 16.042 17.5914 16.5361C17.9751 17.0301 18.1829 17.6381 18.1819 18.2636V19.0909C18.1819 19.332 18.2777 19.5632 18.4482 19.7337C18.6186 19.9042 18.8499 20 19.091 20C19.3321 20 19.5633 19.9042 19.7338 19.7337C19.9043 19.5632 20.0001 19.332 20.0001 19.0909V18.2636C20.0059 17.2042 19.648 16.1748 18.9862 15.3475C18.3243 14.5202 17.3986 13.945 16.3637 13.7182C16.3637 13.7182 16.3637 12.2727 16.3637 11.7909H19.091C19.3321 11.7909 19.5633 11.6951 19.7338 11.5246C19.9043 11.3542 20.0001 11.1229 20.0001 10.8818C20.0001 10.6407 19.9043 10.4095 19.7338 10.239C19.5633 10.0685 19.3321 9.97273 19.091 9.97273H16.3637C16.3637 7.68182 16.3637 8.15455 16.3637 8.04545C17.3887 7.81908 18.3065 7.25159 18.9671 6.4358C19.6277 5.62001 19.9918 4.60421 20.0001 3.55455ZM14.1546 6.36364H5.85462C6.21269 5.56229 6.79511 4.88174 7.53154 4.4042C8.26797 3.92666 9.12691 3.67254 10.0046 3.67254C10.8823 3.67254 11.7413 3.92666 12.4777 4.4042C13.2141 4.88174 13.7965 5.56229 14.1546 6.36364ZM5.51825 14.3818C5.45462 13.8909 5.45462 14.0545 5.45462 8.18182H9.09098V18.0818C8.19147 17.898 7.36869 17.4462 6.73096 16.7857C6.09322 16.1253 5.67044 15.2872 5.51825 14.3818ZM10.9092 18.0818V8.18182H14.5455C14.5455 13.9182 14.5455 13.8636 14.4728 14.4C14.3251 15.3039 13.9046 16.1409 13.2676 16.799C12.6306 17.4571 11.8077 17.9047 10.9092 18.0818Z" fill="#5F5A54"/>
</svg>
