<svg width="20" height="20" viewBox="0 0 20 20" fill="none" xmlns="http://www.w3.org/2000/svg">
<path d="M10 14.1957C7.69565 14.1957 5.80435 12.3261 5.80435 10C5.80435 7.69565 7.67391 5.80435 10 5.80435C12.3043 5.80435 14.1957 7.67391 14.1957 10C14.1957 12.3043 12.3043 14.1957 10 14.1957ZM10 7.34783C8.54348 7.34783 7.34783 8.54348 7.34783 10C7.34783 11.4565 8.54348 12.6522 10 12.6522C11.4565 12.6522 12.6522 11.4565 12.6522 10C12.6522 8.54348 11.4565 7.34783 10 7.34783ZM10 20H9.8913C9.13043 20 8.47826 19.913 8.43478 19.913C8.08696 19.8696 7.82609 19.6087 7.76087 19.2609L7.54348 17.6957C7.06522 17.5435 6.6087 17.3478 6.17391 17.1087L4.95652 18.0435C4.67391 18.2609 4.30435 18.2391 4.02174 18.0435C4 18.0217 3.47826 17.6087 2.93478 17.087L2.84783 17C2.30435 16.4565 1.91304 15.9348 1.8913 15.913C1.67391 15.6304 1.67391 15.2609 1.8913 14.9783L2.84783 13.7174C2.6087 13.2826 2.43478 12.8043 2.28261 12.3261L0.76087 12.1087C0.413044 12.0652 0.152174 11.7826 0.108696 11.4348C0.0869565 11.413 0 10.7609 0 10V9.8913C0 9.13043 0.0869565 8.47826 0.0869565 8.43478C0.130435 8.08696 0.391304 7.82609 0.739131 7.76087L2.30435 7.54348C2.45652 7.06522 2.65217 6.6087 2.8913 6.17391L1.95652 4.95652C1.73913 4.67391 1.76087 4.30435 1.95652 4.02174C1.97826 4 2.3913 3.47826 2.91304 2.93478L3 2.84783C3.54348 2.30435 4.06522 1.91304 4.08696 1.8913C4.36957 1.67391 4.73913 1.67391 5.02174 1.8913L6.28261 2.84783C6.71739 2.6087 7.19565 2.43478 7.67391 2.28261L7.8913 0.76087C7.93478 0.413044 8.21739 0.152174 8.56522 0.108696C8.58696 0.0869565 9.23913 0 10 0H10.1087C10.8696 0 11.5217 0.0869565 11.5652 0.0869565C11.913 0.130435 12.1739 0.391304 12.2391 0.739131L12.4565 2.30435C12.9348 2.45652 13.3913 2.65217 13.8261 2.8913L15.0435 1.95652C15.3261 1.73913 15.6957 1.76087 15.9783 1.95652C16 1.97826 16.5217 2.3913 17.0652 2.91304L17.1522 3C17.6957 3.54348 18.087 4.06522 18.1087 4.08696C18.3261 4.36957 18.3261 4.73913 18.1087 5.02174L17.1739 6.28261C17.413 6.71739 17.587 7.19565 17.7391 7.67391L19.2609 7.8913C19.6087 7.93478 19.8696 8.21739 19.913 8.56522C19.913 8.58696 20 9.26087 20 10.0217V10.1304C20 10.8913 19.913 11.5435 19.913 11.587C19.8696 11.9348 19.6087 12.1957 19.2609 12.2609L17.6957 12.4783C17.5435 12.9565 17.3478 13.413 17.1087 13.8478L18.0435 15.087C18.2609 15.3696 18.2391 15.7391 18.0435 16.0217C18.0217 16.0435 17.6087 16.5652 17.087 17.1087L17 17.1957C16.4565 17.7391 15.9348 18.1304 15.913 18.1522C15.6304 18.3696 15.2609 18.3696 14.9783 18.1522L13.7174 17.1739C13.2826 17.413 12.8043 17.587 12.3261 17.7391L12.1087 19.2609C12.0652 19.6087 11.7826 19.8696 11.4348 19.913C11.413 19.913 10.7609 20 10 20ZM9.21739 18.4348C9.41304 18.4565 9.65217 18.4565 9.8913 18.4565H10C10.2391 18.4565 10.4783 18.4565 10.6739 18.4348L10.8696 17C10.913 16.6739 11.1522 16.4348 11.4565 16.3478C12.1304 16.1957 12.7826 15.9348 13.3696 15.5652C13.5435 15.4565 13.7609 15.4348 13.9565 15.4783C14.0652 15.5 14.1739 15.5652 14.2609 15.6304L15.413 16.5C15.5652 16.3696 15.7391 16.2174 15.913 16.0435L16 15.9565C16.1739 15.7826 16.3261 15.6087 16.4565 15.4565L15.587 14.3043C15.3913 14.0435 15.3913 13.6957 15.5435 13.4348C15.913 12.8696 16.1739 12.2391 16.3261 11.587C16.3913 11.2609 16.6522 11 16.9783 10.9565L18.4348 10.7609C18.4565 10.5652 18.4565 10.3261 18.4565 10.087V10C18.4565 9.76087 18.4565 9.52174 18.4348 9.32609L17 9.13043C16.6957 9.08696 16.4348 8.84783 16.3478 8.54348C16.1957 7.86957 15.9348 7.23913 15.587 6.65217C15.5435 6.6087 15.5217 6.54348 15.5 6.47826C15.413 6.23913 15.4565 5.95652 15.6087 5.76087L16.5 4.58696C16.3696 4.43478 16.2174 4.26087 16.0435 4.08696L15.9565 4C15.7826 3.82609 15.6087 3.67391 15.4565 3.54348L14.3043 4.41304C14.0217 4.6087 13.6522 4.6087 13.3913 4.41304C12.8261 4.06522 12.1957 3.80435 11.5435 3.63044C11.2391 3.56522 11 3.30435 10.9565 2.97826L10.7609 1.52174C10.5652 1.5 10.3261 1.5 10.087 1.5H10C9.76087 1.5 9.52174 1.5 9.32609 1.52174L9.13043 3C9.08696 3.34783 8.82609 3.6087 8.47826 3.65217C7.82609 3.80435 7.19565 4.06522 6.63043 4.41304C6.45652 4.52174 6.23913 4.54348 6.04348 4.5C5.93478 4.47826 5.82609 4.41304 5.73913 4.34783L4.6087 3.47826C4.45652 3.6087 4.28261 3.76087 4.1087 3.93478L4.02174 4.02174C3.84783 4.19565 3.69565 4.36957 3.56522 4.52174L4.43478 5.67391C4.63043 5.93478 4.63043 6.26087 4.47826 6.54348C4.45652 6.56522 4.45652 6.58696 4.43478 6.6087C4.08696 7.17391 3.82609 7.80435 3.67391 8.45652C3.6087 8.76087 3.34783 9 3.02174 9.04348L1.56522 9.23913C1.54348 9.43478 1.54348 9.67391 1.54348 9.91304V10C1.54348 10.2391 1.54348 10.4783 1.56522 10.6739L3 10.8696C3.34783 10.913 3.6087 11.1739 3.65217 11.5217V11.5435C3.80435 12.1957 4.06522 12.8043 4.41304 13.3696C4.52174 13.5652 4.56522 13.8043 4.47826 14.0217C4.45652 14.1087 4.3913 14.1957 4.32609 14.2826L3.47826 15.413C3.6087 15.5652 3.76087 15.7391 3.93478 15.913L4.02174 16C4.19565 16.1739 4.36957 16.3261 4.52174 16.4565L5.67391 15.587C5.95652 15.3696 6.36957 15.3913 6.63043 15.6087C7.19565 15.9565 7.80435 16.1957 8.43478 16.3696C8.73913 16.4348 8.97826 16.6957 9.02174 17.0217L9.21739 18.4348Z" fill="#5F5A54"/>
</svg>
