<svg width="19" height="20" viewBox="0 0 19 20" fill="none" xmlns="http://www.w3.org/2000/svg">
<path d="M17.3778 6.01673L11.2445 0.763019C10.6822 0.271652 9.95436 0 9.20003 0C8.44571 0 7.71784 0.271652 7.1556 0.763019L1.02231 6.01673C0.697624 6.30047 0.438525 6.64853 0.262266 7.03776C0.0860077 7.42698 -0.0033657 7.84842 9.69e-05 8.27403V17.0036C9.69e-05 17.7983 0.323189 18.5604 0.898296 19.1224C1.4734 19.6843 2.25342 20 3.06674 20H15.3333C16.1466 20 16.9267 19.6843 17.5018 19.1224C18.0769 18.5604 18.4 17.7983 18.4 17.0036V8.26404C18.402 7.84011 18.3119 7.42059 18.1357 7.0332C17.9595 6.6458 17.7011 6.29935 17.3778 6.01673ZM11.2445 18.0024H7.1556V13.0084C7.1556 12.7435 7.2633 12.4894 7.455 12.3021C7.6467 12.1148 7.90671 12.0096 8.17782 12.0096H10.2222C10.4934 12.0096 10.7534 12.1148 10.9451 12.3021C11.1368 12.4894 11.2445 12.7435 11.2445 13.0084V18.0024ZM16.3555 17.0036C16.3555 17.2685 16.2478 17.5225 16.0561 17.7098C15.8644 17.8972 15.6044 18.0024 15.3333 18.0024H13.2889V13.0084C13.2889 12.2137 12.9658 11.4515 12.3907 10.8896C11.8156 10.3276 11.0356 10.012 10.2222 10.012H8.17782C7.36449 10.012 6.58448 10.3276 6.00937 10.8896C5.43426 11.4515 5.11117 12.2137 5.11117 13.0084V18.0024H3.06674C2.79563 18.0024 2.53563 17.8972 2.34393 17.7098C2.15222 17.5225 2.04453 17.2685 2.04453 17.0036V8.26404C2.04471 8.12223 2.0758 7.98208 2.13573 7.85291C2.19565 7.72375 2.28304 7.60854 2.39208 7.51494L8.52537 2.27121C8.71191 2.11109 8.95173 2.02278 9.20003 2.02278C9.44833 2.02278 9.68815 2.11109 9.87469 2.27121L16.008 7.51494C16.117 7.60854 16.2044 7.72375 16.2643 7.85291C16.3243 7.98208 16.3554 8.12223 16.3555 8.26404V17.0036Z" fill="#5F5A54"/>
</svg>
